<svg width="35" height="33" viewBox="0 0 35 33" fill="none" xmlns="http://www.w3.org/2000/svg">
<path d="M32.875 8.23492C32.875 6.45313 32.875 5.56138 32.3915 4.89001C31.9081 4.21863 31.0625 3.93676 29.3712 3.37301L27.381 2.71017C25.0457 1.93117 23.8789 1.54167 22.7019 1.70055C21.5265 1.85771 20.5015 2.53934 18.4532 3.9043L16.0923 5.47938C14.4933 6.54538 13.6938 7.07838 12.7953 7.29022C12.4663 7.36874 12.1304 7.41452 11.7925 7.42688C10.87 7.45763 9.95942 7.15355 8.13663 6.54538C5.74838 5.7493 4.55425 5.35126 3.64542 5.75613C3.32335 5.89942 3.03431 6.10763 2.79637 6.36771C2.125 7.10401 2.125 8.36134 2.125 10.8794V17.8238M32.875 14.7915V22.1203C32.875 24.6383 32.875 25.8974 32.2036 26.6303C31.966 26.8916 31.677 27.101 31.3546 27.2453C30.4458 27.6484 29.2516 27.2504 26.8634 26.4543C25.0406 25.8461 24.13 25.542 23.2075 25.5745C22.8691 25.5856 22.5327 25.6303 22.203 25.7078C21.3062 25.9213 20.5067 26.4543 18.9077 27.5186L16.5468 29.0937C14.4968 30.4603 13.4735 31.1437 12.2981 31.2991C11.1228 31.458 9.95429 31.0685 7.619 30.2895L5.62879 29.6267C3.93754 29.0629 3.09192 28.781 2.60846 28.1097C2.15062 27.4742 2.12671 26.6405 2.125 25.0415M22.625 1.97901V7.95817M22.625 25.0415V14.7915M12.375 31.0207V25.0415M12.375 7.95817V18.2082" stroke="white" stroke-width="3" stroke-linecap="round"/>
</svg>
